#!OML:ASF X:\für Bonn\!DataBase\2005_08_12_Daniel\c3d\Daniel.ASF
:FULLY-SPECIFIED
:DEGREES
392
root 16.0406 1.38981 1.09964 -773.755 -85.7914 -424.726
lowerback 28.9383 -2.86888 0.761644
upperback 7.92304 -4.3035 -0.569258
thorax -7.11312 -2.45287 0.440362
lowerneck -7.11752 3.30171 -6.39563
upperneck 1.46604 4.85945 -0.375397
head 1.52031 2.3207 1.12727
rclavicle 3.33958e-014 -1.64743e-013
rhumerus -40.0698 -14.2887 -73.3745
rradius 11.5484
rwrist 59.4841
rhand -21.6021 -344.88
rfingers 7.12502
rthumb 4.793 -374.806
lclavicle 3.33958e-014 -1.64743e-013
lhumerus -761.536 22.0599 -651.523
lradius 21.0894
lwrist -54.3979
lhand -9.77713 353.537
lfingers 7.12502
lthumb 16.1983 382.88
rfemur 385.889 9.54572 381.699
rtibia 20.2451
rfoot 14.681 -33.2942
rtoes 27.3833
lfemur 19.3663 -22.6284 -27.4162
ltibia 32.0576
lfoot 18.2638 14.2534
ltoes 3.29919
393
root 16.0334 1.39465 1.09998 -774.041 -85.7244 -424.375
lowerback 28.8071 -2.85169 0.681899
upperback 7.91045 -4.30163 -0.57779
thorax -7.06008 -2.45001 0.468743
lowerneck -7.20165 3.30472 -6.34916
upperneck 1.4411 4.86471 -0.405734
head 1.52852 2.32264 1.11161
rclavicle 3.89618e-014 -1.21457e-013
rhumerus -40.4792 -15.333 -72.4119
rradius 11.3347
rwrist 61.3237
rhand -21.7384 -344.598
rfingers 7.12502
rthumb 4.66135 -374.527
lclavicle 3.89618e-014 -1.21457e-013
lhumerus -761.724 22.1993 -651.702
lradius 20.9343
lwrist -54.6034
lhand -9.7601 353.611
lfingers 7.12502
lthumb 16.2147 382.953
rfemur 386.864 10.8587 382.532
rtibia 18.9588
rfoot 11.4889 -34.1833
rtoes 28.3303
lfemur 19.7378 -23.1704 -27.8837
ltibia 31.6524
lfoot 17.5565 14.8218
ltoes 3.63736
394
root 16.0234 1.4003 1.10109 -773.996 -85.6878 -424.352
lowerback 28.6387 -2.84666 0.665716
upperback 7.92174 -4.29851 -0.587339
thorax -6.9665 -2.44799 0.456229
lowerneck -7.35654 3.29562 -6.35636
upperneck 1.43767 4.86245 -0.380271
head 1.55424 2.32105 1.12502
rclavicle -9.78021e-014 6.61704e-014
rhumerus -40.8801 -16.4595 -71.4008
rradius 11.1367
rwrist 63.1828
rhand -21.8551 -344.301
rfingers 7.12502
rthumb 4.54868 -374.232
lclavicle -9.78021e-014 6.61704e-014
lhumerus -761.833 22.3564 -651.883
lradius 20.7421
lwrist -54.7872
lhand -9.70316 353.692
lfingers 7.12502
lthumb 16.2695 383.03
rfemur 387.75 12.2038 383.47
rtibia 17.8987
rfoot 8.0116 -34.775
rtoes 29.2693
lfemur 19.9881 -23.51 -28.1346
ltibia 31.3643
lfoot 16.8972 15.2536
ltoes 3.65282
395
root 16.0105 1.40673 1.10179 -773.948 -85.6561 -424.332
lowerback 28.471 -2.84499 0.658101
upperback 7.91821 -4.29676 -0.606121
thorax -6.89114 -2.44571 0.429779
lowerneck -7.46292 3.2847 -6.31057
upperneck 1.43946 4.85145 -0.385478
head 1.57511 2.31509 1.11816
rclavicle 3.18055e-014 -1.01877e-014
rhumerus -41.336 -17.3472 -70.528
rradius 11.0067
rwrist 64.8329
rhand -22.0147 -344.051
rfingers 7.12502
rthumb 4.39456 -373.986
lclavicle 3.18055e-014 -1.01877e-014
lhumerus -761.994 22.5188 -652.11
lradius 20.5294
lwrist -55.0146
lhand -9.76343 353.748
lfingers 7.12502
lthumb 16.2114 383.09
rfemur 388.545 13.6091 384.508
rtibia 17.0923
rfoot 4.52688 -35.1498
rtoes 29.8235
lfemur 20.1745 -23.8254 -28.3534
ltibia 31.1868
lfoot 16.1646 15.7155
ltoes 3.45118
396
root 15.9925 1.41261 1.10339 -773.733 -85.6211 -424.513
lowerback 28.3313 -2.84987 0.636247
upperback 7.92754 -4.30784 -0.598976
thorax -6.81162 -2.45111 0.445428
lowerneck -7.56522 3.28328 -6.38272
upperneck 1.41436 4.85931 -0.321986
head 1.58202 2.31984 1.15324
rclavicle 9.22361e-014 -1.00635e-013
rhumerus -41.7598 -18.1493 -69.6505
rradius 10.8956
rwrist 66.3927
rhand -22.1815 -343.795
rfingers 7.12502
rthumb 4.2335 -373.733
lclavicle 9.22361e-014 -1.00635e-013
lhumerus -762.162 22.7468 -652.316
lradius 20.3307
lwrist -55.2417
lhand -9.79239 353.812
lfingers 7.12502
lthumb 16.1836 383.157
rfemur 389.276 14.9539 385.587
rtibia 16.519
rfoot 1.06291 -35.3261
rtoes 30.2111
lfemur 20.3428 -24.1714 -28.5868
ltibia 31.128
lfoot 15.3278 16.2102
ltoes 3.16038
397
root 15.9741 1.41796 1.10466 -773.772 -85.6097 -424.42
lowerback 28.1653 -2.83875 0.627024
upperback 7.94402 -4.29461 -0.604882
thorax -6.71322 -2.44444 0.429544
lowerneck -7.68943 3.27025 -6.36639
upperneck 1.40002 4.84799 -0.317268
head 1.60003 2.31387 1.15472
rclavicle -4.45278e-014 -1.41634e-014
rhumerus -42.2086 -18.9488 -68.8005
rradius 10.8229
rwrist 67.8615
rhand -22.3695 -343.452
rfingers 7.12502
rthumb 4.05192 -373.393
lclavicle -4.45278e-014 -1.41634e-014
lhumerus -762.285 23.0515 -652.602
lradius 20.0755
lwrist -55.5938
lhand -9.83018 353.735
lfingers 7.12502
lthumb 16.1472 383.082
rfemur 389.892 16.3201 386.697
rtibia 16.1603
rfoot -2.36703 -35.4082
rtoes 30.1288
lfemur 20.4299 -24.4441 -28.7673
ltibia 31.1602
lfoot 14.4371 16.7085
ltoes 2.8077
398
root 15.9525 1.42115 1.10665 -773.362 -85.5902 -424.804
lowerback 28.0496 -2.84957 0.641036
upperback 7.94997 -4.30403 -0.609234
thorax -6.65221 -2.44885 0.413011
lowerneck -7.77464 3.26972 -6.32298
upperneck 1.39767 4.84942 -0.342414
head 1.61578 2.31354 1.14158
rclavicle 4.05521e-014 -7.4097e-014
rhumerus -42.7113 -19.8404 -67.8331
rradius 10.7365
rwrist 69.5314
rhand -22.5756 -343.167
rfingers 7.12502
rthumb 3.85293 -373.112
lclavicle 4.05521e-014 -7.4097e-014
lhumerus -762.465 23.3236 -652.895
lradius 19.87
lwrist -55.9759
lhand -9.89875 353.716
lfingers 7.12502
lthumb 16.0812 383.069
rfemur 390.488 17.6886 387.87
rtibia 15.9648
rfoot -6.32564 -35.3996
rtoes 30.5987
lfemur 20.5143 -24.764 -28.9458
ltibia 31.2665
lfoot 13.4677 17.295
ltoes 2.9454
399
root 15.9313 1.42294 1.10784 -773.354 -85.5772 -424.767
lowerback 27.9316 -2.84057 0.623074
upperback 7.95246 -4.29525 -0.606734
thorax -6.5912 -2.44395 0.416197
lowerneck -7.87731 3.26085 -6.31883
upperneck 1.38451 4.84293 -0.326805
head 1.62973 2.31032 1.14819
rclavicle -7.63333e-014 7.01213e-014
rhumerus -43.1593 -20.4546 -67.0574
rradius 10.7037
rwrist 70.8444
rhand -22.7887 -342.863
rfingers 7.12502
rthumb 3.64717 -372.812
lclavicle -7.63333e-014 7.01213e-014
lhumerus -762.613 23.5473 -653.133
lradius 19.6434
lwrist -56.313
lhand -9.91199 353.654
lfingers 7.12502
lthumb 16.0684 383.008
rfemur 391.042 19.099 389.046
rtibia 15.8801
rfoot -10.5029 -35.2507
rtoes 31.2013
lfemur 20.5023 -24.9373 -29.0227
ltibia 31.4084
lfoot 12.5987 17.7866
ltoes 3.04098
400
root 15.9128 1.42267 1.10929 -772.947 -85.5702 -425.133
lowerback 27.8383 -2.84603 0.649656
upperback 7.94112 -4.29237 -0.606054
thorax -6.56058 -2.44131 0.395956
lowerneck -7.9226 3.25243 -6.33478
upperneck 1.35035 4.83367 -0.282156
head 1.62571 2.30739 1.16544
rclavicle -1.27222e-014 -7.55133e-014
rhumerus -43.6865 -21.2183 -66.1255
rradius 10.6467
rwrist 72.3293
rhand -23.0323 -342.448
rfingers 7.12502
rthumb 3.4119 -372.4
lclavicle -1.27222e-014 -7.55133e-014
lhumerus -762.778 23.6995 -653.351
lradius 19.4547
lwrist -56.5592
lhand -9.91527 353.542
lfingers 7.12502
lthumb 16.0652 382.896
rfemur 391.503 20.2499 390.061
rtibia 15.8576
rfoot -14.2685 -34.9754
rtoes 31.7578
lfemur 20.4392 -25.0277 -28.9789
ltibia 31.5622
lfoot 11.842 18.226
ltoes 3.35075
401
root 15.8964 1.42199 1.11008 -772.486 -85.5782 -425.545
lowerback 27.725 -2.84794 0.683965
upperback 7.95268 -4.28462 -0.610264
thorax -6.49554 -2.43741 0.362294
lowerneck -7.99984 3.2397 -6.29429
upperneck 1.31364 4.81637 -0.257481
head 1.62837 2.30029 1.16723
rclavicle 5.32743e-014 -8.82852e-014
rhumerus -44.1543 -21.932 -65.2741
rradius 10.5838
rwrist 73.6629
rhand -23.3044 -342.038
rfingers 7.12502
rthumb 3.14912 -371.995
lclavicle 5.32743e-014 -8.82852e-014
lhumerus -762.917 23.9291 -653.628
lradius 19.2521
lwrist -56.9445
lhand -9.91877 353.382
lfingers 7.12502
lthumb 16.0619 382.736
rfemur 391.875 21.1593 390.884
rtibia 15.8611
rfoot -17.4424 -34.631
rtoes 32.227
lfemur 20.3147 -24.9671 -28.7873
ltibia 31.7021
lfoot 11.2941 18.4998
ltoes 3.60534
